<?xml version="1.0" standalone="no"?>
<!DOCTYPE svg PUBLIC "-//W3C//DTD SVG 20010904//EN"
 "http://www.w3.org/TR/2001/REC-SVG-20010904/DTD/svg10.dtd">
<svg version="1.0" xmlns="http://www.w3.org/2000/svg"
 width="142.000000pt" height="142.000000pt" viewBox="0 0 142.000000 142.000000"
 preserveAspectRatio="xMidYMid meet">

<g transform="translate(0.000000,142.000000) scale(0.100000,-0.100000)"
fill="#fff" stroke="none">
<path d="M395 1296 c-12 -19 -15 -49 -13 -147 l3 -124 25 0 25 0 3 123 3 122
334 0 335 0 0 -560 0 -560 -335 0 -335 0 0 322 c0 318 0 321 20 303 21 -19 50
-14 50 9 0 15 -86 96 -102 96 -17 0 -98 -83 -98 -101 0 -24 27 -25 52 -2 17
16 18 5 18 -313 0 -282 2 -333 16 -352 l15 -22 363 0 c339 0 364 1 379 18 15
17 17 73 17 599 0 549 -1 581 -18 596 -17 15 -58 17 -380 17 l-362 0 -15 -24z"/>
<path d="M107 1233 c-4 -3 -7 -37 -7 -75 l0 -68 80 0 80 0 0 75 0 75 -73 0
c-41 0 -77 -3 -80 -7z"/>
<path d="M718 1213 c34 -2 90 -2 125 0 34 2 6 3 -63 3 -69 0 -97 -1 -62 -3z"/>
<path d="M222 983 l3 -48 53 -3 52 -3 0 50 0 51 -56 0 -55 0 3 -47z"/>
<path d="M745 274 c-23 -24 -15 -57 17 -68 19 -7 31 -6 42 4 22 17 20 57 -3
70 -27 14 -37 13 -56 -6z"/>
</g>
</svg>

