<svg id="Layer_1" data-name="Layer 1" xmlns="http://www.w3.org/2000/svg" viewBox="0 0 50 50"><path d="M25,43.15a1.47,1.47,0,0,1-.42-.06C24,42.9,9.94,38.45,9.94,26.24c0-3.39,0-5.84-.07-7.63-.08-4.55-.1-5.5,1.12-6.72a48.25,48.25,0,0,1,14-5h0C27,6.85,37.63,10.5,39,11.91c1.21,1.21,1.19,2.26,1.11,6.71,0,1.77-.08,4.2-.08,7.62,0,12.26-14,16.67-14.61,16.85A1.74,1.74,0,0,1,25,43.15ZM13.11,14.09c-.25.26-.25.95-.19,4.46,0,1.68.07,4.22.07,7.69,0,7.59,7.12,11.66,10.49,13.16V10.2A58.55,58.55,0,0,0,13.11,14.09ZM26.52,39.4C29.89,37.89,37,33.82,37,26.24c0-3.41.05-5.87.08-7.67.07-3.74,0-4.25-.23-4.52A60.12,60.12,0,0,0,26.52,10.2Z" style="fill:#757575"/></svg>