<svg id="Layer_1" data-name="Layer 1" xmlns="http://www.w3.org/2000/svg" viewBox="0 0 50 50"><path d="M24.9,6.8a18.27,18.27,0,0,0-18,18.4,17.93,17.93,0,0,0,18,18,18.2,18.2,0,0,0,0-36.4ZM40.1,23.6h-7a25.53,25.53,0,0,0-4.6-13A15.13,15.13,0,0,1,40.1,23.6Zm-10,0H19.9a25.78,25.78,0,0,1,5-12.8A22.78,22.78,0,0,1,30.1,23.6ZM21.7,10.4a25.81,25.81,0,0,0-4.8,13.2h-7A15.35,15.35,0,0,1,21.7,10.4ZM9.9,26.8h7a26.92,26.92,0,0,0,4.6,13.4A15.58,15.58,0,0,1,9.9,26.8Zm10,0H30.1a24.7,24.7,0,0,1-5,12.8A24,24,0,0,1,19.9,26.8Zm8.4,13.4a27.18,27.18,0,0,0,4.8-13.4h7A15.1,15.1,0,0,1,28.3,40.2Z" style="fill:#757575"/></svg>