<svg id="Layer_1" data-name="Layer 1" xmlns="http://www.w3.org/2000/svg" viewBox="0 0 50 50"><path d="M17.71,44A8.73,8.73,0,0,1,9,35.32V27.18a8.6,8.6,0,0,1,5.68-8.29V16A10.29,10.29,0,0,1,24.91,6a10.71,10.71,0,0,1,7.32,2.9A10.09,10.09,0,0,1,35.33,16v2.88A8.6,8.6,0,0,1,41,27.18v8.14A8.73,8.73,0,0,1,32.29,44Zm0-22.34a5.49,5.49,0,0,0-5.48,5.48v8.14a5.49,5.49,0,0,0,5.48,5.48H32.29a5.5,5.5,0,0,0,5.48-5.34V27.18a5.49,5.49,0,0,0-5.48-5.48ZM31.9,18.46V16.2a7.15,7.15,0,0,0-2-5,6.78,6.78,0,0,0-5-2,6.83,6.83,0,0,0-7,6.81v2.45ZM25.09,35a1.7,1.7,0,0,1-1.71-1.72V29.07a1.69,1.69,0,0,1,1.71-1.71,1.59,1.59,0,0,1,1.72,1.71v4.16C26.6,34.32,26,35,25.09,35Z" style="fill:#757575"/></svg>