<?xml version="1.0" encoding="utf-8"?>
<!-- Generator: Adobe Illustrator 24.3.0, SVG Export Plug-In . SVG Version: 6.00 Build 0)  -->
<svg version="1.1" id="Layer_1" xmlns="http://www.w3.org/2000/svg" xmlns:xlink="http://www.w3.org/1999/xlink" x="0px" y="0px"
	 viewBox="0 0 52.4 50" style="enable-background:new 0 0 52.4 50;" xml:space="preserve">
<style type="text/css">
	.st0{fill:#757575;}
</style>
<g id="members_2" transform="translate(-2505.4 -1097.351)">
	<g id="Group_827" transform="translate(2505.4 1111.103)">
		<g id="Group_3-24">
			<path id="Fill_1-103" class="st0" d="M20.2,35.2c-5.2,0-19.1,0-19.1-8.9c0-9,14.4-9,19.1-9c8.2,0,19.1,0.9,19.1,8.9
				C39.3,35.2,24.9,35.2,20.2,35.2z M20.2,21.1c-7,0-15.3,0.9-15.3,5.2c0,3.4,5.2,5.1,15.3,5.1s15.3-1.8,15.3-5.2
				S30.4,21.1,20.2,21.1z"/>
		</g>
	</g>
	<path id="Fill_4-61" class="st0" d="M2525.7,1124.2L2525.7,1124.2c-7.2,0-13-5.8-13-12.9c0-7.1,5.8-12.9,12.9-12.9
		s12.9,5.8,12.9,12.9l0,0C2538.5,1118.4,2532.8,1124.2,2525.7,1124.2L2525.7,1124.2z M2525.6,1102.1c-5.1-0.1-9.2,3.9-9.3,9
		c-0.1,5.1,3.9,9.2,9,9.3c0.1,0,0.2,0,0.3,0h0.1c5.1,0,9.1-4.1,9.1-9.2C2534.7,1106.2,2530.6,1102.1,2525.6,1102.1z"/>
	<path id="Fill_6-18" class="st0" d="M2542.9,1121.4c-1,0-1.9-0.9-1.9-1.9c0-0.9,0.7-1.7,1.6-1.9c3.5-0.5,6-3.7,5.5-7.2
		c-0.4-2.8-2.6-5-5.3-5.4c-1-0.2-1.7-1.2-1.4-2.3c0.2-0.9,1.1-1.6,2.1-1.5c5.6,0.9,9.3,6.2,8.4,11.7c-0.7,4.4-4.2,7.8-8.6,8.4
		C2543.1,1121.4,2543,1121.4,2542.9,1121.4"/>
	<g id="Group_829" transform="translate(2523.625 1110.56)">
		<g>
			<g id="Group_828">
				<g id="Group_10-6" transform="translate(-0.001 0)">
					<path id="Fill_8-10" class="st0" d="M27.9,29.3c-1,0-1.9-0.9-1.9-1.9c0-0.8,0.5-1.5,1.2-1.8c2.1-0.8,2.1-1.8,2.1-2.2
						c0-1.4-1.7-2.4-5-2.9c-1-0.2-1.7-1.1-1.6-2.1c0.2-1,1.1-1.7,2.1-1.6c6.8,1,8.2,4.2,8.2,6.6c0,2.7-1.9,5.1-4.6,5.8
						C28.3,29.2,28.1,29.3,27.9,29.3"/>
				</g>
			</g>
		</g>
	</g>
</g>
</svg>
