<?xml version="1.0" encoding="utf-8"?>
<!-- Generator: Adobe Illustrator 24.3.0, SVG Export Plug-In . SVG Version: 6.00 Build 0)  -->
<svg version="1.1" id="friends" xmlns="http://www.w3.org/2000/svg" xmlns:xlink="http://www.w3.org/1999/xlink" x="0px" y="0px"
	 viewBox="0 0 50 50" style="enable-background:new 0 0 50 50;" xml:space="preserve">
<style type="text/css">
	.st0{fill:#757575;}
</style>
<g id="Group_827" transform="translate(0 11.957)">
	<g id="Group_3-24">
		<path id="Fill_1-103" class="st0" d="M25,37c-5.2,0-19.1,0-19.1-8.9c0-9,14.4-9,19.1-9c8.2,0,19.1,0.9,19.1,8.9
			C44.1,37,29.7,37,25,37z M25,22.9c-7,0-15.3,0.9-15.3,5.2c0,3.4,5.2,5.1,15.3,5.1s15.3-1.7,15.3-5.2S35.2,22.9,25,22.9z"/>
	</g>
</g>
<path id="Fill_4-61" class="st0" d="M25.1,26.9L25.1,26.9c-7.2,0-13-5.8-13-12.9S17.9,1,25,1s12.9,5.8,12.9,12.9l0,0
	C38,21.1,32.2,26.8,25.1,26.9L25.1,26.9z M25,4.8c-5.1-0.1-9.2,3.9-9.3,9s3.9,9.2,9,9.3l0,0h0.4c5.1-0.1,9.1-4.3,9-9.3
	C34,8.8,29.9,4.8,25,4.8L25,4.8z"/>
</svg>
