<?xml version="1.0" encoding="utf-8"?>
<!-- Generator: Adobe Illustrator 24.3.0, SVG Export Plug-In . SVG Version: 6.00 Build 0)  -->
<svg version="1.1" id="Layer_1" xmlns="http://www.w3.org/2000/svg" xmlns:xlink="http://www.w3.org/1999/xlink" x="0px" y="0px"
	 viewBox="0 0 50 50" style="enable-background:new 0 0 50 50;" xml:space="preserve">
<style type="text/css">
	.st0{fill:#757575;}
</style>
<path class="st0" d="M37.9,17.4v-3.9c0-3.4-1.4-6.5-3.9-8.9C31.4,2.2,28.3,1,24.9,1c-7,0-12.5,5.5-12.8,12.5v3.9
	c-4.3,1.4-7.2,5.5-7.2,10.4v10.4c0,6,4.8,10.9,10.9,10.9h18.6c6,0,10.9-4.8,10.9-10.9V27.7C45.1,22.9,42.2,18.8,37.9,17.4z
	 M15.7,13.5c0-5.1,4.1-8.9,9.2-8.9c2.7,0,4.8,1,6.5,2.7c1.7,1.7,2.7,4.1,2.7,6.5v3.1H15.7V13.5z M41.5,38.1c0,4.1-3.4,7.2-7.2,7.2
	H15.7c-4.1,0-7.2-3.4-7.2-7.2V27.7c0-4.1,3.4-7.2,7.2-7.2H34c4.1,0,7.2,3.4,7.2,7.2v10.4H41.5z M25.1,37.4c-1,0-1.9-0.7-1.9-1.9
	v-5.3c0-1,0.7-1.9,1.9-1.9s1.9,0.7,1.9,1.9v5.3C26.8,36.6,26.1,37.4,25.1,37.4z"/>
</svg>
