<?xml version="1.0" encoding="utf-8"?>
<!-- Generator: Adobe Illustrator 24.3.0, SVG Export Plug-In . SVG Version: 6.00 Build 0)  -->
<svg version="1.1" id="Layer_1" xmlns="http://www.w3.org/2000/svg" xmlns:xlink="http://www.w3.org/1999/xlink" x="0px" y="0px"
	 viewBox="0 0 50 50" style="enable-background:new 0 0 50 50;" xml:space="preserve">
<style type="text/css">
	.st0{fill:#757575;}
</style>
<path class="st0" d="M24.9,0.8C11.6,0.8,1,12,1,25.2s10.6,23.9,23.9,23.9S49,38.2,49,24.9S38.1,0.8,24.9,0.8z M45,23.1h-9.3
	c-0.3-6.1-2.7-12.2-6.1-17.2C37.9,7.7,44,14.6,45,23.1z M31.8,23.1H18.2c0.8-6.4,2.9-12.2,6.6-17C28.8,10.9,31.2,16.7,31.8,23.1z
	 M20.6,5.6c-3.7,5-5.8,11.1-6.4,17.5H5C6,14.3,12.4,7.4,20.6,5.6z M5,27.3h9.3c0.3,6.4,2.7,12.5,6.1,17.8C12.1,43,5.8,35.8,5,27.3z
	 M18.2,27.3h13.5c-0.5,6.1-2.9,12.2-6.6,17C21.2,39.3,18.8,33.4,18.2,27.3z M29.4,45.1c3.7-5.3,5.8-11.4,6.4-17.8H45
	C44.2,36.1,37.9,43.2,29.4,45.1z"/>
</svg>
